<svg width="182" height="24" viewBox="0 0 182 24" fill="none" xmlns="http://www.w3.org/2000/svg">
<path d="M159.928 23.4679L168.085 1.07599H173.843L182 23.4679H175.922L174.387 19.1814H166.902L165.366 23.4679H159.928ZM168.533 14.767H172.755L170.644 8.11345L168.533 14.767Z" fill="#F5F5F5"/>
<path d="M139.449 23.4679V1.07599H149.206C150.613 1.07599 151.84 1.25726 152.885 1.6198C153.951 1.96101 154.836 2.45149 155.54 3.09126C156.243 3.73103 156.777 4.52008 157.139 5.45841C157.502 6.37541 157.683 7.4097 157.683 8.56129C157.683 10.1607 157.31 11.5362 156.563 12.6878C155.817 13.8181 154.676 14.6497 153.141 15.1829L158.323 23.4679H151.925L147.575 15.7907H145.207V23.4679H139.449ZM145.207 11.3123H147.926C148.694 11.3123 149.334 11.259 149.846 11.1523C150.358 11.0244 150.763 10.8538 151.061 10.6405C151.381 10.406 151.605 10.1181 151.733 9.77685C151.861 9.41431 151.925 9.00912 151.925 8.56129C151.925 8.11345 151.861 7.71892 151.733 7.37771C151.605 7.01518 151.381 6.72728 151.061 6.51403C150.763 6.27944 150.358 6.10884 149.846 6.00221C149.334 5.87426 148.694 5.81028 147.926 5.81028H145.207V11.3123Z" fill="#F5F5F5"/>
<path d="M123.923 23.4679V5.81028H117.046V1.07599H136.558V5.81028H129.681V23.4679H123.923Z" fill="#F5F5F5"/>
<path d="M101.675 23.4679L93.3582 1.07599H99.7558L104.81 16.1106L109.672 1.07599H115.43L107.433 23.4679H101.675Z" fill="#F5F5F5"/>
<path d="M73.054 23.4679L81.211 1.07599H86.9689L95.126 23.4679H89.0482L87.5127 19.1814H80.0274L78.492 23.4679H73.054ZM81.6588 14.767H85.8813L83.7701 8.11345L81.6588 14.767Z" fill="#F5F5F5"/>
<path d="M53.2321 23.4679V19.3734L64.1081 5.81028H53.392V1.07599H71.1456V5.17051L60.2695 18.7336H71.4655V23.4679H53.2321Z" fill="#F5F5F5"/>
<path d="M32.9427 23.8837C31.4712 23.8837 30.0744 23.6705 28.7522 23.244C27.43 22.8175 26.2678 22.1457 25.2655 21.2287C24.2845 20.2904 23.5061 19.1068 22.9303 17.678C22.3545 16.2278 22.0667 14.4791 22.0667 12.4319V11.7921C22.0667 9.83016 22.3545 8.14544 22.9303 6.73795C23.5061 5.33045 24.2845 4.17887 25.2655 3.28319C26.2678 2.38752 27.43 1.72642 28.7522 1.29991C30.0744 0.873399 31.4712 0.660143 32.9427 0.660143C34.4142 0.660143 35.811 0.873399 37.1332 1.29991C38.4554 1.72642 39.607 2.38752 40.5879 3.28319C41.5903 4.17887 42.3793 5.33045 42.9551 6.73795C43.5309 8.14544 43.8188 9.83016 43.8188 11.7921V12.4319C43.8188 14.4791 43.5309 16.2278 42.9551 17.678C42.3793 19.1068 41.5903 20.2904 40.5879 21.2287C39.607 22.1457 38.4554 22.8175 37.1332 23.244C35.811 23.6705 34.4142 23.8837 32.9427 23.8837ZM32.9427 19.0855C33.5825 19.0855 34.2009 18.9895 34.798 18.7976C35.3952 18.5843 35.9176 18.2325 36.3655 17.742C36.8133 17.2302 37.1759 16.5477 37.4531 15.6947C37.7303 14.8204 37.8689 13.7327 37.8689 12.4319V11.7921C37.8689 10.5339 37.7303 9.49961 37.4531 8.68924C37.1759 7.87887 36.8133 7.2391 36.3655 6.76993C35.9176 6.27945 35.3952 5.93824 34.798 5.7463C34.2009 5.55437 33.5825 5.45841 32.9427 5.45841C32.3029 5.45841 31.6845 5.55437 31.0874 5.7463C30.4903 5.93824 29.9678 6.27945 29.52 6.76993C29.0721 7.2391 28.7096 7.87887 28.4323 8.68924C28.1551 9.49961 28.0165 10.5339 28.0165 11.7921V12.4319C28.0165 13.7327 28.1551 14.8204 28.4323 15.6947C28.7096 16.5477 29.0721 17.2302 29.52 17.742C29.9678 18.2325 30.4903 18.5843 31.0874 18.7976C31.6845 18.9895 32.3029 19.0855 32.9427 19.0855Z" fill="#F5F5F5"/>
<path d="M0 23.4679V1.07599H8.47693C10.1617 1.07599 11.6651 1.31057 12.9873 1.77974C14.3095 2.22758 15.4291 2.89933 16.3461 3.79501C17.2631 4.69069 17.9668 5.81028 18.4573 7.15379C18.9478 8.47598 19.1931 10.0221 19.1931 11.7921V12.4319C19.1931 14.2232 18.9371 15.812 18.4253 17.1982C17.9348 18.563 17.2098 19.7146 16.2501 20.6529C15.3118 21.5699 14.1602 22.2737 12.7954 22.7641C11.4305 23.2333 9.88442 23.4679 8.15705 23.4679H0ZM5.75792 18.7336H7.83717C8.56224 18.7336 9.24466 18.627 9.88443 18.4137C10.5455 18.1791 11.1213 17.8166 11.6118 17.3261C12.1236 16.8356 12.5181 16.1852 12.7954 15.3748C13.0939 14.5644 13.2432 13.5835 13.2432 12.4319V11.7921C13.2432 10.7045 13.1046 9.78751 12.8274 9.04111C12.5715 8.27339 12.2089 7.65495 11.7398 7.18578C11.2919 6.69529 10.7588 6.34342 10.1403 6.13016C9.52189 5.91691 8.8608 5.81028 8.15705 5.81028H5.75792V18.7336Z" fill="#F5F5F5"/>
</svg>
